<svg width="26" height="26" viewBox="0 0 26 26" fill="none" xmlns="http://www.w3.org/2000/svg">
<path d="M8.91451 15.7237C9.16144 16.3669 9.56606 16.9378 10.0912 17.3839C11.7613 18.7857 14.1917 18.8034 15.882 17.4261C16.4144 16.9879 16.8283 16.4232 17.0859 15.7836" stroke="#3E3E3E" stroke-width="1.5" stroke-linecap="round" stroke-linejoin="round"/>
<path fill-rule="evenodd" clip-rule="evenodd" d="M22.5335 13.0001C22.5335 18.2652 18.2652 22.5335 13.0001 22.5335C7.73502 22.5335 3.4668 18.2652 3.4668 13.0001C3.4668 7.73502 7.73502 3.4668 13.0001 3.4668C15.5285 3.4668 17.9534 4.4712 19.7412 6.25905C21.5291 8.04689 22.5335 10.4717 22.5335 13.0001Z" stroke="#3E3E3E" stroke-width="1.5" stroke-linecap="round" stroke-linejoin="round"/>
<path d="M8.91435 11.6373V10.2754" stroke="#3E3E3E" stroke-width="1.5" stroke-linecap="round"/>
<path d="M17.0852 11.6373V10.2754" stroke="#3E3E3E" stroke-width="1.5" stroke-linecap="round"/>
</svg>
