<svg width="140" height="150" viewBox="0 0 140 150" fill="none" xmlns="http://www.w3.org/2000/svg">
<path d="M0 103H19V150H9C4.02944 150 0 145.971 0 141V103Z" fill="#607D8B"/>
<path d="M19 150V131H121V150H19Z" fill="#607D8B"/>
<path d="M140 103H121V150H131C135.971 150 140 145.971 140 141V103Z" fill="#607D8B"/>
<path d="M56 47H84V107C84 110.314 81.3137 113 78 113H62C58.6863 113 56 110.314 56 107V47Z" fill="#2196F3"/>
<path d="M66.9933 1.42609C68.5865 -0.389428 71.413 -0.389426 73.0063 1.4261L107.174 40.3617C109.443 42.9468 107.607 47.0001 104.168 47.0001H35.8317C32.3924 47.0001 30.5567 42.9468 32.8253 40.3617L66.9933 1.42609Z" fill="#2196F3"/>
</svg>
