<svg width="25" height="25" viewBox="0 0 25 25" fill="none" xmlns="http://www.w3.org/2000/svg">
<path d="M20.1878 14.9792C20.3928 15.1844 20.5554 15.4281 20.6662 15.6962C20.777 15.9643 20.8339 16.2516 20.8337 16.5417V16.5417C20.8337 17.1274 20.601 17.6891 20.1869 18.1032C19.7727 18.5173 19.211 18.75 18.6253 18.75H6.37533C5.78964 18.75 5.22794 18.5173 4.8138 18.1032C4.39966 17.6891 4.16699 17.1274 4.16699 16.5417V16.5417C4.16674 16.2516 4.22364 15.9643 4.33446 15.6962C4.44527 15.4281 4.60782 15.1844 4.81283 14.9792L6.25033 13.5417V9.375C6.25033 7.7174 6.90881 6.12769 8.08091 4.95558C9.25301 3.78348 10.8427 3.125 12.5003 3.125V3.125C14.1579 3.125 15.7476 3.78348 16.9197 4.95558C18.0918 6.12769 18.7503 7.7174 18.7503 9.375V13.5417L20.1878 14.9792ZM15.6253 18.75H9.37533C9.37533 19.5788 9.70457 20.3737 10.2906 20.9597C10.8767 21.5458 11.6715 21.875 12.5003 21.875C13.3291 21.875 14.124 21.5458 14.71 20.9597C15.2961 20.3737 15.6253 19.5788 15.6253 18.75Z" stroke="black" stroke-linecap="round" stroke-linejoin="round"/>
</svg>
