<svg width="23" height="23" viewBox="0 0 23 23" fill="none" xmlns="http://www.w3.org/2000/svg">
<path d="M19.1667 19.1667L14.375 14.375M16.2917 9.58333C16.2917 10.9101 15.8982 12.2071 15.1611 13.3103C14.424 14.4135 13.3763 15.2733 12.1505 15.781C10.9247 16.2888 9.5759 16.4216 8.27461 16.1628C6.97332 15.9039 5.77801 15.265 4.83983 14.3268C3.90165 13.3887 3.26274 12.1934 3.0039 10.8921C2.74506 9.59078 2.87791 8.24195 3.38564 7.01617C3.89338 5.79038 4.75321 4.74268 5.85639 4.00556C6.95957 3.26844 8.25655 2.875 9.58334 2.875C11.3625 2.875 13.0688 3.58177 14.3268 4.83983C15.5849 6.09788 16.2917 7.80417 16.2917 9.58333V9.58333Z" stroke="black" stroke-linecap="round" stroke-linejoin="round"/>
<path d="M19.6462 19.6457L16.292 16.2915" stroke="black" stroke-width="2" stroke-linecap="round" stroke-linejoin="round"/>
</svg>
