<svg width="35" height="35" viewBox="0 0 29 29" fill="none" xmlns="http://www.w3.org/2000/svg">
<path d="M18.875 14.5C18.875 15.3653 18.6184 16.2112 18.1377 16.9306C17.6569 17.6501 16.9737 18.2108 16.1742 18.542C15.3748 18.8731 14.4951 18.9597 13.6465 18.7909C12.7978 18.6221 12.0183 18.2054 11.4064 17.5936C10.7946 16.9817 10.3779 16.2022 10.2091 15.3535C10.0403 14.5049 10.1269 13.6252 10.458 12.8258C10.7892 12.0263 11.3499 11.3431 12.0694 10.8623C12.7888 10.3816 13.6347 10.125 14.5 10.125C15.6603 10.125 16.7731 10.5859 17.5936 11.4064C18.4141 12.2269 18.875 13.3397 18.875 14.5ZM26.1667 11.5833H25.3063C25.0048 11.5821 24.7111 11.4875 24.4656 11.3126C24.2201 11.1376 24.0349 10.8908 23.9354 10.6063C23.8057 10.3331 23.764 10.0264 23.8163 9.72852C23.8685 9.43066 24.0121 9.15642 24.2271 8.94375L24.825 8.34583C24.9617 8.21026 25.0702 8.04897 25.1442 7.87126C25.2183 7.69355 25.2564 7.50293 25.2564 7.31042C25.2564 7.1179 25.2183 6.92729 25.1442 6.74958C25.0702 6.57186 24.9617 6.41057 24.825 6.275L22.7542 4.18958C22.6186 4.0529 22.4573 3.9444 22.2796 3.87037C22.1019 3.79633 21.9113 3.75821 21.7188 3.75821C21.5262 3.75821 21.3356 3.79633 21.1579 3.87037C20.9802 3.9444 20.8189 4.0529 20.6833 4.18958L20.0854 4.7875C19.8727 5.00249 19.5985 5.14604 19.3007 5.1983C19.0028 5.25055 18.6961 5.20892 18.4229 5.07917C18.1305 4.98383 17.8758 4.79851 17.6951 4.54969C17.5143 4.30086 17.4169 4.00128 17.4167 3.69375V2.83333C17.4167 2.44656 17.263 2.07563 16.9895 1.80214C16.716 1.52865 16.3451 1.375 15.9583 1.375H13.0417C12.6549 1.375 12.284 1.52865 12.0105 1.80214C11.737 2.07563 11.5833 2.44656 11.5833 2.83333V3.69375C11.5821 3.99521 11.4875 4.2889 11.3126 4.53438C11.1376 4.77987 10.8908 4.9651 10.6063 5.06458V5.06458C10.3331 5.19434 10.0264 5.23597 9.72852 5.18371C9.43066 5.13146 9.15642 4.9879 8.94375 4.77292L8.34583 4.175C8.21026 4.03831 8.04897 3.92982 7.87126 3.85578C7.69355 3.78175 7.50293 3.74363 7.31042 3.74363C7.1179 3.74363 6.92729 3.78175 6.74958 3.85578C6.57186 3.92982 6.41057 4.03831 6.275 4.175L4.18958 6.24583C4.0529 6.3814 3.9444 6.5427 3.87037 6.72041C3.79633 6.89812 3.75821 7.08873 3.75821 7.28125C3.75821 7.47377 3.79633 7.66438 3.87037 7.84209C3.9444 8.0198 4.0529 8.1811 4.18958 8.31667L4.7875 8.91458C5.00249 9.12725 5.14604 9.4015 5.1983 9.69935C5.25055 9.9972 5.20892 10.3039 5.07917 10.5771C4.97969 10.8617 4.79446 11.1084 4.54897 11.2834C4.30348 11.4584 4.0098 11.553 3.70833 11.5542H2.83333C2.44656 11.5542 2.07563 11.7078 1.80214 11.9813C1.52865 12.2548 1.375 12.6257 1.375 13.0125V15.9292C1.375 16.3159 1.52865 16.6869 1.80214 16.9604C2.07563 17.2339 2.44656 17.3875 2.83333 17.3875H3.69375C3.99521 17.3887 4.2889 17.4833 4.53438 17.6583C4.77987 17.8332 4.9651 18.08 5.06458 18.3646V18.3646C5.19434 18.6377 5.23597 18.9445 5.18371 19.2423C5.13146 19.5402 4.9879 19.8144 4.77292 20.0271L4.175 20.625C4.03831 20.7606 3.92982 20.9219 3.85578 21.0996C3.78175 21.2773 3.74363 21.4679 3.74363 21.6604C3.74363 21.8529 3.78175 22.0435 3.85578 22.2213C3.92982 22.399 4.03831 22.5603 4.175 22.6958L6.23125 24.7521C6.36682 24.8888 6.52811 24.9973 6.70583 25.0713C6.88354 25.1453 7.07415 25.1835 7.26667 25.1835C7.45918 25.1835 7.6498 25.1453 7.82751 25.0713C8.00522 24.9973 8.16651 24.8888 8.30208 24.7521L8.9 24.1542C9.11267 23.9392 9.38691 23.7956 9.68477 23.7434C9.98262 23.6911 10.2894 23.7327 10.5625 23.8625C10.8471 23.962 11.0938 24.1472 11.2688 24.3927C11.4438 24.6382 11.5384 24.9319 11.5396 25.2333V26.1667C11.5396 26.5534 11.6932 26.9244 11.9667 27.1979C12.2402 27.4714 12.6111 27.625 12.9979 27.625H15.9146C16.3014 27.625 16.6723 27.4714 16.9458 27.1979C17.2193 26.9244 17.3729 26.5534 17.3729 26.1667V25.3063C17.3741 25.0048 17.4687 24.7111 17.6437 24.4656C17.8187 24.2201 18.0654 24.0349 18.35 23.9354C18.6232 23.8057 18.9299 23.764 19.2277 23.8163C19.5256 23.8685 19.7998 24.0121 20.0125 24.2271L20.6104 24.825C20.746 24.9617 20.9073 25.0702 21.085 25.1442C21.2627 25.2183 21.4533 25.2564 21.6458 25.2564C21.8384 25.2564 22.029 25.2183 22.2067 25.1442C22.3844 25.0702 22.5457 24.9617 22.6813 24.825L24.7375 22.7688C24.8742 22.6332 24.9827 22.4719 25.0567 22.2942C25.1308 22.1165 25.1689 21.9258 25.1689 21.7333C25.1689 21.5408 25.1308 21.3502 25.0567 21.1725C24.9827 20.9948 24.8742 20.8335 24.7375 20.6979L24.1396 20.1C23.9246 19.8873 23.781 19.6131 23.7288 19.3152C23.6765 19.0174 23.7182 18.7107 23.8479 18.4375V18.4375C23.9474 18.1529 24.1326 17.9062 24.3781 17.7312C24.6236 17.5562 24.9173 17.4616 25.2188 17.4604H26.1667C26.5534 17.4604 26.9244 17.3068 27.1979 17.0333C27.4714 16.7598 27.625 16.3889 27.625 16.0021V13.0417C27.625 12.6549 27.4714 12.284 27.1979 12.0105C26.9244 11.737 26.5534 11.5833 26.1667 11.5833Z" stroke="white" stroke-width="2" stroke-linecap="round" stroke-linejoin="round"/>
</svg>
